<?xml version="1.0" encoding="UTF-8"?>
<!DOCTYPE svg PUBLIC "-//W3C//DTD SVG 1.1//EN" "http://www.w3.org/Graphics/SVG/1.1/DTD/svg11.dtd">
<svg version="1.1" xmlns="http://www.w3.org/2000/svg" xmlns:xlink="http://www.w3.org/1999/xlink" x="0" y="0" width="302" height="302" viewBox="0, 0, 302, 302">
  <g id="Image">
    <path d="M0,0 L302,0 L302,302 L0,302 L0,0 z" fill="#31A158"/>
  </g>
  <g id="Layer_2">
    <g id="chewonki_newlogo_all_White-1">
      <path d="M147.95,154.062 C147.95,154.162 145.85,154.562 145.85,154.662 C145.85,155.362 145.95,157.262 145.85,157.862 C145.55,159.262 144.95,159.962 144.45,161.362 C144.45,161.462 143.95,162.462 144.05,162.562 C144.45,162.862 149.05,158.062 149.05,156.962 C148.95,156.162 147.95,154.062 147.95,154.062 z M210.45,87.062 C210.85,87.262 210.25,88.062 210.15,88.262 C209.55,89.062 207.05,90.962 206.65,91.262 C205.45,92.062 204.25,92.762 202.95,93.462 C201.95,93.962 199.25,95.362 199.65,95.562 C200.75,96.062 206.95,92.862 208.15,92.462 C208.95,92.162 209.95,92.262 208.85,93.562 C206.35,96.462 199.45,99.162 200.25,99.262 C202.35,99.462 206.45,96.562 207.35,97.362 C207.95,97.862 205.75,99.562 203.65,101.162 C201.95,102.362 200.25,103.762 198.35,104.662 C192.55,107.462 187.15,111.662 181.15,114.262 C181.15,114.262 177.65,126.462 172.55,135.362 C171.75,136.662 169.75,137.062 168.85,137.562 C167.85,138.062 170.35,138.762 175.85,137.562 C181.65,136.362 188.65,135.562 190.05,135.662 C191.45,135.762 192.85,137.062 193.05,137.762 C193.25,138.462 192.95,140.762 190.85,144.062 C188.65,147.362 184.45,151.762 183.05,152.362 C181.55,152.862 172.45,147.962 170.15,148.162 C167.85,148.362 166.15,148.762 163.75,149.362 C161.35,150.062 158.65,151.062 156.25,151.762 C155.25,152.062 153.35,152.662 152.75,153.062 C152.55,153.162 152.85,154.362 152.95,155.062 C153.45,158.362 153.25,157.762 152.55,158.562 C151.55,159.662 143.25,167.662 143.25,167.662 C143.25,167.662 145.55,172.262 145.95,173.562 C146.15,174.362 145.45,175.462 144.85,175.962 C144.25,176.462 144.65,175.362 144.15,174.162 C143.65,172.862 142.15,170.762 141.05,169.862 C139.95,168.962 137.85,167.462 137.15,167.362 C136.05,167.262 136.35,169.262 136.05,169.562 C135.75,169.862 134.75,167.362 134.85,166.462 C134.85,166.462 133.75,166.562 133.25,167.162 C132.75,167.762 132.55,166.462 133.55,165.462 C134.25,164.762 134.25,164.362 135.95,164.562 C137.65,164.762 140.75,165.962 141.05,166.062 C141.25,166.162 143.65,158.162 143.45,157.562 C142.85,155.962 141.95,153.862 141.65,153.762 C140.55,153.462 139.35,153.162 138.35,152.962 C137.35,152.762 136.45,152.362 135.55,152.062 C131.75,150.762 131.85,149.762 130.25,149.062 C128.55,148.362 127.75,147.962 125.95,147.662 C124.45,147.362 123.05,147.362 121.65,146.562 C121.05,146.262 120.35,145.662 119.65,145.462 C118.75,145.262 117.15,145.762 116.05,146.662 C115.65,146.962 116.05,148.362 115.45,147.262 C115.35,147.062 115.35,146.962 115.35,146.762 C115.35,146.162 115.35,145.762 115.45,145.162 C115.65,143.162 117.75,141.662 119.75,141.362 C119.75,141.362 120.05,139.262 123.15,138.162 C124.35,137.762 125.55,137.662 126.75,137.262 C127.55,137.062 128.45,137.062 129.25,136.862 C129.15,137.062 129.15,137.162 128.95,137.362 C129.65,137.162 134.45,137.862 134.55,136.762 C134.55,136.262 133.65,135.362 133.25,135.062 C132.45,134.262 131.45,133.462 130.55,132.662 C128.75,131.062 126.95,129.462 124.95,128.162 C120.55,125.162 106.65,117.762 104.05,116.062 C96.85,111.262 92.85,103.162 90.65,99.162 C89.85,97.762 89.55,95.762 89.65,95.662 C90.75,95.162 95.45,102.062 96.95,103.562 C97.45,104.062 95.85,101.262 95.25,100.162 C93.95,97.662 92.75,94.562 93.05,94.562 C95.05,94.062 99.45,103.162 101.45,103.562 C101.65,103.562 100.55,102.162 99.95,100.962 C99.55,100.362 97.55,96.562 97.95,96.362 C99.35,95.662 102.85,102.462 104.15,103.262 C104.35,103.362 103.35,101.362 103.05,100.462 C102.25,98.762 102.35,98.062 102.65,98.262 C104.35,99.162 108.95,107.062 112.25,109.862 C118.55,115.262 123.05,115.962 136.75,120.262 C141.85,121.862 146.75,125.362 147.25,125.462 C147.85,125.562 153.85,115.662 155.15,109.062 C156.05,104.362 157.25,98.162 160.15,96.562 C162.75,95.162 171.75,91.862 179.35,88.362 C191.15,82.862 201.05,75.662 201.75,76.162 C202.85,76.962 199.95,79.762 198.85,80.662 C196.95,82.262 191.45,85.862 191.75,86.262 C192.25,86.462 196.65,84.362 198.25,83.362 C200.15,82.162 202.05,80.962 203.85,79.562 C206.85,77.162 207.95,77.962 205.95,80.462 C202.05,85.362 195.35,88.462 195.95,88.862 C196.85,89.662 206.65,82.862 208.75,81.962 C210.25,81.362 210.15,81.962 209.65,82.862 C207.15,87.562 198.05,91.462 198.85,91.862 C199.85,92.562 209.35,86.562 210.45,87.062 z" fill="#FFFFFF"/>
      <path d="M50.25,203.462 C50.25,204.862 50.25,205.162 48.65,205.962 C44.75,207.762 40.95,207.862 39.35,207.862 C26.35,207.862 21.35,199.862 21.35,189.762 C21.35,180.662 24.75,175.762 29.75,173.262 C32.55,171.862 35.55,171.262 38.75,171.262 C44.45,171.262 49.55,173.162 50.25,173.662 C50.55,173.862 50.65,174.062 50.65,174.162 C50.65,174.462 50.55,174.662 50.35,175.362 L48.55,180.862 C47.35,179.962 44.55,177.962 39.85,177.962 C33.55,177.962 29.85,182.262 29.85,189.562 C29.85,196.162 32.75,201.162 39.65,201.162 C44.65,201.162 48.15,198.662 50.25,197.162 L50.25,203.462 z" fill="#FFFFFF"/>
      <path d="M85.45,173.662 L74.95,173.662 C75.85,175.162 76.35,176.162 76.35,180.862 L76.35,186.062 L65.55,186.062 L65.55,180.862 C65.55,176.162 66.05,175.162 66.95,173.662 L56.45,173.662 C57.25,175.162 57.85,176.162 57.85,180.862 L57.85,199.562 C57.85,203.962 57.55,204.962 56.55,206.762 L66.85,206.762 C65.75,204.762 65.55,203.562 65.55,199.562 L65.55,192.662 L76.35,192.662 L76.35,199.562 C76.35,203.962 76.05,204.962 75.05,206.762 L85.35,206.762 C84.25,204.662 84.05,203.462 84.05,199.562 L84.05,180.862 C83.95,176.262 84.55,175.262 85.45,173.662 z" fill="#FFFFFF"/>
      <path d="M99.15,200.762 L99.15,192.162 L103.45,192.162 C104.05,192.162 105.75,192.162 107.05,192.262 L107.05,186.162 C106.15,186.362 105.15,186.462 103.95,186.462 L99.15,186.462 L99.15,179.662 L105.35,179.662 C107.85,179.662 108.55,179.962 109.25,180.262 L108.95,175.162 C108.95,173.762 108.85,173.762 107.05,173.762 L94.45,173.762 C93.35,173.762 92.45,173.762 91.85,173.762 C91.25,173.762 90.75,173.662 90.35,173.662 C91.25,175.262 91.75,176.362 91.75,180.862 L91.75,199.662 C91.75,204.162 91.35,205.162 90.45,206.862 C93.45,206.862 95.05,206.762 97.45,206.762 C98.85,206.762 105.65,206.862 107.25,206.862 C109.35,206.862 109.55,206.862 109.85,205.362 L110.95,200.262 C109.85,200.562 108.95,200.862 106.15,200.862 L99.15,200.862 z" fill="#FFFFFF"/>
      <path d="M178.05,173.262 C172.55,173.262 168.95,174.862 166.45,177.262 C162.55,180.962 161.65,186.362 161.65,189.962 C161.65,193.062 162.25,196.262 163.55,199.162 C165.55,203.662 169.75,207.162 178.35,207.162 C181.95,207.162 188.05,206.462 191.55,202.062 C194.65,198.062 195.05,192.662 195.05,190.062 C195.05,183.862 192.95,179.962 190.25,177.362 C188.65,175.562 185.55,173.262 178.05,173.262 z M185.35,197.862 C183.45,200.462 180.05,200.962 178.35,200.962 C176.65,200.962 173.25,200.462 171.35,197.862 C169.65,195.462 169.35,192.162 169.35,190.262 C169.35,186.262 170.35,179.562 178.35,179.562 C186.25,179.562 187.35,186.262 187.35,190.262 C187.35,192.162 187.05,195.562 185.35,197.862 z" fill="#FFFFFF"/>
      <path d="M230.65,173.662 L220.85,173.662 C221.65,175.562 221.85,175.962 221.95,180.662 L222.35,195.962 L206.05,173.662 L197.25,173.662 C198.35,175.662 198.95,177.162 198.95,181.862 L198.95,199.462 C198.95,203.462 198.75,204.562 197.65,206.662 L207.25,206.662 C206.75,204.962 206.35,203.662 206.25,198.962 L205.95,183.062 L223.45,206.662 L229.55,206.662 C229.45,205.262 229.25,203.762 229.25,198.262 L229.25,180.862 C229.25,176.262 229.75,175.262 230.65,173.662 z" fill="#FFFFFF"/>
      <path d="M251.35,189.162 C252.95,187.362 258.85,181.262 265.15,177.462 L260.45,173.962 C260.05,173.662 259.65,173.662 259.45,173.662 C258.55,173.662 256.65,175.362 255.75,176.062 C251.65,179.562 247.75,183.362 244.65,187.762 L244.65,180.862 C244.65,176.162 245.25,175.162 246.05,173.662 L235.55,173.662 C236.35,175.162 236.95,176.162 236.95,180.862 L236.95,199.462 C236.95,203.562 236.75,204.662 235.65,206.662 L245.95,206.662 C244.85,204.662 244.65,203.562 244.65,199.462 L244.65,195.162 L246.05,193.562 C249.55,197.662 253.05,201.662 257.05,205.262 C258.65,206.662 259.15,207.062 260.15,207.062 C260.85,207.062 261.35,206.762 261.85,206.462 L267.45,202.662 C266.45,202.362 265.15,201.862 262.65,199.862 C258.65,196.562 254.85,193.062 251.35,189.162 z" fill="#FFFFFF"/>
      <path d="M279.25,180.862 C279.25,176.162 279.75,175.262 280.65,173.662 L270.15,173.662 C270.95,175.162 271.55,176.162 271.55,180.862 L271.55,199.462 C271.55,203.862 271.25,204.762 270.25,206.662 L280.55,206.662 C279.45,204.562 279.25,203.362 279.25,199.462 L279.25,180.862 z" fill="#FFFFFF"/>
      <path d="M141.75,181.762 C141.75,181.762 141.75,181.762 141.75,181.762 L141.75,181.762 L141.75,181.762 z" fill="#000000"/>
      <path d="M140.85,177.862 C140.85,177.662 140.85,177.362 140.95,177.262 C140.95,177.362 140.85,177.562 140.85,177.862 z" fill="#000000"/>
      <path d="M154.15,173.662 C154.25,174.162 154.25,174.462 154.25,174.662 C154.25,175.562 153.75,176.962 153.05,178.562 L146.15,194.262 C146.15,194.262 142.35,184.962 141.25,179.562 C140.85,177.862 141.45,177.462 141.55,177.362 L137.85,177.362 L132.65,177.362 C133.85,178.862 134.45,182.262 134.25,182.762 C134.05,183.362 129.05,193.962 129.05,193.962 L122.65,178.062 C121.55,175.262 121.45,174.762 121.65,173.762 L111.85,173.762 C112.95,175.262 113.65,176.262 116.25,182.062 L127.75,207.362 L128.55,207.362 L137.35,188.762 L145.15,207.362 L145.95,207.362 L158.95,182.162 C161.25,177.462 162.35,175.762 164.15,173.762 L154.15,173.762 z" fill="#FFFFFF"/>
    </g>
  </g>
</svg>
