<?xml version="1.0" encoding="UTF-8"?>
<svg width="1200pt" height="1200pt" version="1.1" viewBox="0 0 1200 1200" xmlns="http://www.w3.org/2000/svg">
 <path d="m701.63 963.1c-15.844 0-31.359-5.3906-43.875-15.469l-88.594-71.344c-10.734-8.625-24.188-12.844-37.922-11.906l-189.94 13.172c-9.5625 0.65625-18.938-0.46875-27.938-3.375-23.578-7.5469-41.953-26.25-49.078-49.969l-68.25-229.18c-8.7188-29.344-3.6094-60.469 14.016-85.5 17.625-24.984 45.234-40.266 75.75-41.906l4.8281-0.23438c2.3906-0.14062 4.6875 0.23438 6.7969 0.98438 2.0156-0.98438 4.3125-1.5938 6.7031-1.7344l228.28-12.375c3.7031-0.1875 7.4062-0.046875 11.25 0.42188 28.125 3.6094 50.156 25.828 53.531 54.094 1.9219 16.922-3.2344 34.031-14.156 46.969-11.062 13.125-26.578 20.906-43.688 21.891l-121.36 6.0469 36.234 144.1 62.156-6.1406c39.328-3.6562 78.516 7.0781 110.34 30.375l116.11 84.844c20.578 15 31.312 39.984 28.125 65.25-1.3594 10.5-5.1094 20.672-10.828 29.438-10.734 16.453-28.078 27.703-47.578 30.797-3.6562 0.46875-7.3125 0.75-10.922 0.75zm-166.55-133.74c20.344 0 40.031 6.8906 56.016 19.781l88.594 71.344c7.7812 6.2812 17.484 8.8594 27.375 7.3125s18.328-7.0312 23.812-15.422c2.9062-4.4531 4.7344-9.375 5.3906-14.719 1.5938-12.656-3.7969-25.172-14.062-32.672l-116.16-84.844c-24.938-18.234-55.641-26.672-86.391-23.812l-77.062 7.6406c-8.625 0.84375-16.547-4.7344-18.656-13.125l-45.094-179.29c-1.2656-5.0625-0.23438-10.453 2.9062-14.625 3.0938-4.2188 7.9219-6.7969 13.172-7.0312l142.45-7.125c7.3125-0.42188 14.062-3.7969 18.891-9.5156 4.8281-5.7656 7.0312-13.031 6.1875-20.438-1.4531-12.234-11.062-21.938-23.297-23.484-1.6875-0.23438-3.3281-0.28125-4.9219-0.1875l-228.32 12.375c-2.3906 0.14062-4.6875-0.23438-6.7969-0.98438-2.0625 0.98438-4.3125 1.5938-6.7031 1.7344l-4.8281 0.23438c-19.781 1.0781-37.641 10.969-49.078 27.141-11.438 16.219-14.766 36.422-9.0938 55.453l68.25 229.18c3.7969 12.656 13.688 22.688 26.344 26.766 4.6875 1.5 9.8438 2.1562 14.812 1.7812l189.94-13.172c2.1562-0.1875 4.2656-0.28125 6.3281-0.28125z"/>
 <path d="m386.48 1158.6c-1.4062 0-2.7656-0.046875-4.1719-0.14062-1.5-0.09375-2.9531-0.28125-4.0781-0.42188-17.344-2.2031-32.812-11.062-43.5-24.938-10.688-13.828-15.328-31.031-13.078-48.375l17.344-131.72c1.5-11.531-0.60938-23.016-6.1875-33.234l-29.391-53.766c-4.6406-8.4375-1.5-19.078 6.9375-23.672 8.4844-4.6406 19.078-1.5 23.672 6.9375l29.391 53.766c9.1406 16.734 12.656 35.625 10.172 54.516l-17.344 131.72c-1.0312 8.0625 1.125 16.078 6.0938 22.5 4.9688 6.4688 12.188 10.594 20.25 11.625 0.60938 0.09375 1.1719 0.14062 1.7344 0.1875 15.328 0.98438 29.016-9.5625 31.922-24.516l28.547-144.94c5.7656-29.344 0.9375-59.906-13.641-86.016l-3.7031-6.6094c-4.6875-8.4375-1.6875-19.031 6.75-23.766 8.4375-4.6875 19.031-1.6875 23.766 6.75l3.7031 6.6094c18.609 33.328 24.75 72.328 17.391 109.73l-28.5 144.89c-5.9531 30.797-33.094 52.875-64.078 52.875z"/>
 <path d="m290.9 502.22c-1.0312 0-1.9219-0.046875-2.6719-0.09375-33.141-1.1719-63.891-15.188-86.484-39.422s-34.406-55.875-33.234-89.016 15.188-63.844 39.422-86.484c24.234-22.594 55.828-34.406 89.016-33.234 68.438 2.3906 122.16 60.047 119.72 128.44-2.1562 60.844-49.266 111.98-109.59 118.92-5.3438 0.60938-10.5 0.9375-15.422 0.84375-0.23438 0.046875-0.51562 0.046875-0.75 0.046875zm1.5938-213.37c-22.641 0-44.109 8.4375-60.75 23.953-17.438 16.266-27.516 38.344-28.312 62.156-0.84375 23.812 7.6406 46.547 23.906 63.984s38.344 27.516 62.156 28.312h0.32812c0.375 0 0.75 0.046876 1.125 0.046876h0.89062c3.4688 0.046874 7.2188-0.14063 11.156-0.60938h0.046875c43.359-4.9688 77.203-41.719 78.75-85.5 1.7344-49.172-36.891-90.609-86.062-92.297-1.0781-0.046876-2.1562-0.046876-3.2344-0.046876z"/>
 <path d="m1024.9 877.55c-2.2969 0-4.5938-0.46875-6.7969-1.3594l-251.06-105.89c-7.125-3-11.438-10.359-10.547-18.047l15.891-141.89-60.141-64.266c-6-6.4219-6.2812-16.312-0.70312-23.062l44.203-53.25-125.34-67.172c-2.3438-1.2656-4.3594-3-5.9062-5.1562l-78.562-108.38c-3.4688-4.7812-4.2656-10.922-2.2031-16.453l29.625-78.141-122.26-122.02c-5.0156-4.9688-6.5156-12.469-3.7969-19.031 2.6719-6.5156 9.0469-10.781 16.078-10.781l561.47-1.2188h0.046875c4.6406 0 9.0469 1.8281 12.328 5.1094s5.1094 7.7344 5.1094 12.375v801.19c0 5.8594-2.9531 11.297-7.7812 14.531-2.9062 1.9219-6.2812 2.9062-9.6562 2.9062zm-232.31-134.34 214.82 90.609v-757.4l-501.94 1.125 100.5 100.27c4.875 4.875 6.4219 12.141 3.9844 18.562l-30.281 79.875 70.688 97.5 140.68 75.375c4.6406 2.4844 7.875 6.8906 8.9062 12.047 0.98438 5.1562-0.375 10.453-3.7031 14.484l-48.047 57.844 55.125 58.922c3.4688 3.7031 5.1562 8.8125 4.5938 13.875z"/>
 <path d="m514.45 490.13c-1.3125 0-2.625-0.14062-3.9375-0.46875-9.375-2.1562-15.234-11.531-13.078-20.953 5.6719-24.469 15.375-47.812 29.719-71.25 16.641-27.281 38.062-52.125 63.656-73.875 7.3594-6.2344 18.375-5.3438 24.609 2.0156s5.3438 18.375-1.9688 24.609c-22.734 19.312-41.719 41.344-56.438 65.484-12.328 20.203-20.719 40.172-25.5 60.938-1.9219 8.0625-9.1406 13.5-17.062 13.5z"/>
 <path d="m175.08 984.14h-0.23438c-9.6562-0.14062-17.344-8.0625-17.203-17.719 0.79688-55.688 14.766-104.34 41.531-144.61 16.172-24.281 35.719-43.688 59.859-59.297 8.1094-5.25 18.891-2.9531 24.141 5.1562s2.9531 18.891-5.1562 24.141c-20.016 12.984-36.328 29.109-49.781 49.359-23.016 34.594-35.016 76.875-35.719 125.76-0.09375 9.5625-7.9219 17.203-17.438 17.203z"/>
 <path d="m431.34 725.76c-5.9531 0-11.812-3.0469-15.047-8.5781-4.9219-8.2969-2.1562-18.984 6.1406-23.906 20.062-11.859 34.969-26.156 46.922-45 19.219-30.281 21.047-58.312 21.281-86.766 0.09375-9.6094 7.875-17.297 17.438-17.297h0.14062c9.6562 0.09375 17.391 7.9688 17.297 17.625-0.28125 32.391-2.5781 67.172-26.719 105.14-14.812 23.344-33.984 41.812-58.688 56.344-2.7188 1.6875-5.7656 2.4375-8.7656 2.4375z"/>
</svg>
