<?xml version="1.0" encoding="UTF-8"?>
<svg width="1200pt" height="1200pt" version="1.1" viewBox="0 0 1200 1200" xmlns="http://www.w3.org/2000/svg">
 <path d="m394.78 649.08c-7.4531-6.7031-15.469-11.859-24.141-15.609v-67.688c0-19.781-13.688-36.375-32.062-41.062l-23.297-225.71c-1.6875-16.453-15.469-28.922-32.062-28.922-16.547 0-30.375 12.375-32.062 28.922l-23.297 225.71c-18.375 4.6875-32.062 21.234-32.062 41.062v67.688c-8.7656 3.8438-17.062 9.1406-24.703 16.219-18.375 16.781-28.219 38.766-28.219 63.609v398.06c0 26.531 21.469 48 48 48l184.74-0.046875c26.531 0 48-21.469 48-48v-397.92c0-25.312-9.75-46.922-28.828-64.312zm-120.71-347.76c0.46875-4.7812 4.4531-8.3906 9.2344-8.3906s8.7656 3.6094 9.2344 8.3906l22.922 222h-64.312zm-55.219 264.47c0-10.922 8.8594-19.688 19.688-19.688h89.625c10.922 0 19.688 8.8594 19.688 19.688v61.688c-3.6094-0.46875-7.2188-0.70312-10.922-0.70312h-107.16c-3.7031 0-7.3125 0.23438-10.922 0.70312zm-32.25 100.83c12.703-11.625 26.531-17.062 43.219-17.062h107.16c16.453 0 30.375 5.3906 42.609 16.453 14.297 13.078 21.234 28.547 21.234 47.297v84.469h-234.89v-84.469c0-18.516 6.9844-34.219 20.672-46.688zm214.18 154.08v144.84h-234.84v-144.84zm-25.172 315.84h-184.45c-13.922 0-25.219-11.297-25.219-25.219v-123h234.84v123.14c0 13.781-11.25 25.078-25.172 25.078zm576.84-939.98c8.5312-31.922 4.2188-65.297-12.375-93.938-16.547-28.688-43.219-49.219-75.234-57.703-32.062-8.6719-65.531-4.125-94.312 12.703-28.688 16.688-48.938 43.312-57.234 75l-50.625 188.76c-1.7812 6.8438-0.84375 13.922 2.625 20.062 0.46875 0.70312 0.9375 1.4531 1.4531 2.0625l-9.6094 35.625c-1.4531 5.3906-4.4531 9.9375-8.5312 13.547-3.9375-3.6094-7.0781-8.1562-8.5312-13.547l-9.6094-35.625c0.46875-0.70312 1.0781-1.3125 1.4531-2.0625 3.4688-6.1406 4.4531-13.219 2.625-20.062l-50.531-188.76c-8.2969-31.781-28.688-58.453-57.234-75.141-28.781-16.781-62.391-21.234-94.453-12.609-31.922 8.5312-58.688 29.062-75.234 57.703-16.547 28.688-20.859 62.062-12.375 93.938 17.625 66 85.688 105.23 151.69 87.609 13.453-3.6094 26.297-9.4688 37.781-17.297l20.391 75.938c2.1562 7.9219 7.6875 14.062 14.625 17.156l27.234 101.62-79.219 356.02v0.23438c-10.922 55.312-2.5312 88.781 15.938 127.78 3.4688 7.4531 10.688 12 18.703 12 0.60938 0 1.3125 0 1.9219-0.14062 8.7656-0.84375 15.938-6.8438 18.234-15.375l76.688-286.22 76.688 286.22c2.2969 8.5312 9.4688 14.531 18.234 15.375 0.60938 0 1.3125 0.14062 1.9219 0.14062 8.0625 0 15.234-4.5469 18.703-12 18.375-39.141 26.859-72.469 15.844-127.78v-0.23438l-79.312-355.92 27.281-101.62c6.9375-3.1406 12.609-9.2344 14.625-17.156l20.391-75.938c11.531 7.7812 24.234 13.688 37.781 17.297 31.922 8.5312 65.297 4.2188 93.938-12.375 28.594-16.594 49.125-43.359 57.656-75.281zm-280.69 204.14c3.2344-4.7812 6-9.9375 7.5469-15.609l7.9219-29.766 17.156 4.5469-14.766 55.219c-3.4688-7.2188-10.078-12.609-17.859-14.391zm-119.91-156.61c-1.0781-3.8438-3.9375-6.9375-7.9219-8.0625-1.0781-0.375-2.1562-0.46875-3.1406-0.46875-2.8594 0-5.625 1.0781-7.7812 3-12 11.062-26.625 19.219-42.469 23.391-26.062 6.9375-53.297 3.375-76.688-10.078s-40.078-35.297-47.062-61.312c-6.7969-25.922-3.1875-53.156 10.266-76.547s35.297-40.078 61.312-47.062c26.156-7.0781 53.625-3.3281 77.156 10.359 23.391 13.547 39.938 35.297 46.688 61.219l50.625 188.76c0.375 1.2188-0.14062 2.2969-0.375 2.7656s-0.9375 1.3125-2.1562 1.6875l-28.922 7.7812c-1.9219 0.46875-3.9375-0.70312-4.4531-2.5312zm-0.46875 686.76c-15.141-33.375-21.141-61.547-11.859-108.47l69.844-313.08 27.469 102.47zm194.68 0-153-570.98 17.156-4.5469 7.9219 29.766c5.7656 21.609 25.453 37.078 47.766 37.688 1.6875 0 3 1.0781 3.4688 2.8594l88.547 396.71c9.2344 47.062 3.1406 75.281-11.859 108.52zm137.26-678.84c-23.391 13.453-50.625 17.062-76.688 10.078-15.844-4.2188-30.469-12.375-42.469-23.391-2.8594-2.7656-7.0781-3.7031-10.922-2.625s-6.8438 4.2188-7.9219 8.0625l-24.844 92.766c-0.46875 1.9219-2.5312 3.1406-4.4531 2.5312l-28.922-7.7812c-1.2188-0.375-1.9219-1.2188-2.1562-1.6875s-0.70312-1.4531-0.375-2.7656l50.625-188.86c6.7031-25.781 23.297-47.531 46.688-61.078 15.703-9.1406 33.141-13.781 50.766-13.781 8.7656 0 17.531 1.2188 26.297 3.4688 26.062 6.9375 47.859 23.625 61.312 47.062 13.453 23.391 17.062 50.625 10.078 76.688-6.9375 26.016-23.625 47.859-47.016 61.312zm172.82 171.71-42.234-106.08c-4.9219-12.375-16.688-20.297-29.859-20.297-13.219 0-24.938 7.9219-29.859 20.297l-42.234 106.08c-0.46875 1.3125-0.84375 2.7656-0.84375 4.2188v658.78c0 40.078 32.766 72.609 72.938 72.609 40.219 0 72.938-32.531 72.938-72.609v-658.78c-0.14062-1.4531-0.375-2.8594-0.84375-4.2188zm-80.906-97.641c1.4531-3.7031 4.6875-5.8594 8.625-5.8594 4.0781 0 7.2188 2.1562 8.625 5.8594l36 90.469h-89.391zm58.828 113.39v547.69h-100.22v-547.69zm-50.062 697.08c-27.609 0-50.062-22.312-50.062-49.781v-76.922h100.22v76.922c-0.09375 27.469-22.547 49.781-50.156 49.781zm-319.31-684c0 8.8594-7.2188 15.938-15.938 15.938-8.8594 0-15.938-7.2188-15.938-15.938 0-8.7656 7.2188-15.938 15.938-15.938 8.8594-0.046875 15.938 7.1719 15.938 15.938zm168.24-351.84c-35.156 0-63.844 28.688-63.844 63.844s28.688 63.844 63.844 63.844 63.844-28.688 63.844-63.844c-0.14062-35.156-28.688-63.844-63.844-63.844zm0 104.77c-22.547 0-40.922-18.375-40.922-40.922 0-22.547 18.375-40.922 40.922-40.922s40.922 18.375 40.922 40.922c0 22.547-18.375 40.922-40.922 40.922zm-368.39-104.77c-35.156 0-63.844 28.688-63.844 63.844s28.688 63.844 63.844 63.844 63.844-28.688 63.844-63.844-28.688-63.844-63.844-63.844zm0 104.77c-22.547 0-40.922-18.375-40.922-40.922 0-22.547 18.375-40.922 40.922-40.922 22.547 0 40.922 18.375 40.922 40.922 0 22.547-18.234 40.922-40.922 40.922z"/>
</svg>
