<?xml version="1.0" encoding="UTF-8"?>
<svg width="1200pt" height="1200pt" version="1.1" viewBox="0 0 1200 1200" xmlns="http://www.w3.org/2000/svg">
 <path d="m649.13 262.64c28.219 0 51.188-22.969 51.188-51.188s-22.969-51.188-51.188-51.188-51.188 22.969-51.188 51.188 22.969 51.188 51.188 51.188zm0-73.312c12.188 0 22.125 9.9375 22.125 22.125s-9.9375 22.125-22.125 22.125-22.125-9.9375-22.125-22.125 9.9375-22.125 22.125-22.125zm-386.29 813.71c35.109 0 63.656-28.547 63.656-63.656 0-35.109-28.547-63.656-63.656-63.656-35.109 0-63.656 28.547-63.656 63.656 0 35.109 28.547 63.656 63.656 63.656zm0-98.25c19.078 0 34.594 15.516 34.594 34.594 0 19.078-15.516 34.594-34.594 34.594-19.078 0-34.594-15.516-34.594-34.594 0-19.078 15.516-34.594 34.594-34.594zm337.18 98.25c35.109 0 63.656-28.547 63.656-63.656 0-35.109-28.547-63.656-63.656-63.656s-63.656 28.547-63.656 63.656c0 35.109 28.547 63.656 63.656 63.656zm0-98.25c19.078 0 34.594 15.516 34.594 34.594 0 19.078-15.516 34.594-34.594 34.594s-34.594-15.516-34.594-34.594c0-19.078 15.516-34.594 34.594-34.594zm370.74-109.55v-133.03c0-45.281-36.844-82.078-82.078-82.078h-30.469v-182.81l68.953-68.953 28.734 40.922c2.7188 3.8906 7.1719 6.1875 11.906 6.1875h62.953c8.0156 0 14.531-6.5156 14.531-14.531s-6.5156-14.531-14.531-14.531h-55.406l-28.406-40.5 28.406-40.5h55.406c8.0156 0 14.531-6.5156 14.531-14.531s-6.5156-14.531-14.531-14.531h-62.953c-4.7344 0-9.1875 2.2969-11.906 6.1875l-37.828 53.859-84.656 84.656c-2.7188 2.7188-4.2656 6.4219-4.2656 10.266v188.81h-123.24v-269.72h31.547c31.312 0 56.766-25.453 56.766-56.766v-84.422c0-31.312-25.453-56.766-56.766-56.766h-176.58c-31.312 0-56.766 25.453-56.766 56.766v84.422c0 31.312 25.453 56.766 56.766 56.766h31.547v269.72h-94.5l-86.766-125.21c51.938-70.547 46.172-170.58-17.672-234.42-5.4375-5.4375-15.094-5.4375-20.531 0l-64.969 64.969c-28.312-18.234-66.703-14.953-91.359 9.7031-24.703 24.609-28.031 63.047-9.75 91.406l-68.625 68.625c-2.7188 2.7188-4.2656 6.4219-4.2656 10.266s1.5469 7.5469 4.2656 10.266c35.203 35.203 81.422 52.781 127.64 52.781 15.844 0 31.688-2.25 47.062-6.375v57.938h-1.5469c-45.281 0-82.078 36.844-82.078 82.078v133.03c-65.531 15.281-114.56 74.016-114.56 144.14 0 81.656 66.469 148.13 148.13 148.13 81.66 0 148.13-66.469 148.13-148.13 0-48.797-23.859-92.062-60.375-119.06h161.68c-36.516 27-60.375 70.219-60.375 119.06 0 81.656 66.422 148.13 148.13 148.13 81.656 0 148.13-66.469 148.13-148.13 0-48.797-23.859-92.062-60.375-119.06h161.68c-36.516 27-60.375 70.219-60.375 119.06 0 81.656 66.422 148.13 148.13 148.13 81.656 0 148.13-66.469 148.13-148.13 0-70.125-49.031-128.86-114.56-144.14zm-437.58-541.55v-84.422c0-15.281 12.422-27.703 27.703-27.703h176.58c15.281 0 27.703 12.422 27.703 27.703v84.422c0 15.281-12.422 27.703-27.703 27.703h-45.656c-0.14062 0-0.28125-0.046876-0.42188-0.046876s-0.28125 0.046876-0.42188 0.046876h-83.625c-0.14062 0-0.28125-0.046876-0.42188-0.046876s-0.28125 0.046876-0.42188 0.046876h-45.656c-15.281 0-27.703-12.422-27.703-27.703zm88.312 56.766h55.359v269.72h-55.359zm-384.37 5.3438c13.266-13.266 33.094-16.125 49.359-8.8125l-58.172 58.172c-7.3594-16.266-4.5-36.094 8.8125-49.359zm-67.594 149.26 66.703-66.703c0.046875-0.046875 0.14062-0.09375 0.1875-0.14062s0.09375-0.14062 0.1875-0.23438l82.641-82.641c0.09375-0.09375 0.1875-0.14062 0.28125-0.23438 0.046875-0.046875 0.09375-0.14062 0.1875-0.23438l63-63c45.984 55.688 46.031 136.74 0.1875 192.47-0.23438 0.23438-0.42188 0.51562-0.65625 0.75-2.9062 3.4688-5.9531 6.8906-9.2344 10.172-55.594 55.594-144 58.828-203.44 9.7969zm172.45 46.547c17.859-8.2969 34.594-19.547 49.453-33.938l71.062 102.56h-120.52zm39.891 427.78c0 65.625-53.391 119.06-119.06 119.06-65.625 0-119.06-53.391-119.06-119.06 0-65.625 53.391-119.06 119.06-119.06 65.625 0 119.06 53.391 119.06 119.06zm337.18 0c0 65.625-53.391 119.06-119.06 119.06-65.625 0-119.06-53.391-119.06-119.06 0-65.625 53.391-119.06 119.06-119.06 65.625 0 119.06 53.391 119.06 119.06zm-460.74-148.13v-129.05c0-29.25 23.766-53.016 53.016-53.016h577.26c29.25 0 53.016 23.812 53.016 53.016v129.05l-683.26 0.046876zm678.84 267.14c-65.625 0-119.06-53.391-119.06-119.06 0-65.625 53.391-119.06 119.06-119.06 65.625 0 119.06 53.391 119.06 119.06 0 65.625-53.391 119.06-119.06 119.06zm0-182.72c-35.109 0-63.656 28.547-63.656 63.656 0 35.109 28.547 63.656 63.656 63.656s63.656-28.547 63.656-63.656c0-35.109-28.547-63.656-63.656-63.656zm0 98.25c-19.078 0-34.594-15.516-34.594-34.594 0-19.078 15.516-34.594 34.594-34.594s34.594 15.516 34.594 34.594c0 19.078-15.516 34.594-34.594 34.594zm-423.28-317.81h-199.74c-8.0156 0-14.531 6.5156-14.531 14.531v59.109c0 8.0156 6.5156 14.531 14.531 14.531h199.74c8.0156 0 14.531-6.5156 14.531-14.531v-59.109c0-8.0156-6.5156-14.531-14.531-14.531zm-14.531 59.109h-170.68v-30.047h170.68zm115.03-44.578v59.109c0 8.0156-6.5156 14.531-14.531 14.531s-14.531-6.5156-14.531-14.531v-59.109c0-8.0156 6.5156-14.531 14.531-14.531s14.531 6.5156 14.531 14.531zm75.234 0v59.109c0 8.0156-6.5156 14.531-14.531 14.531s-14.531-6.5156-14.531-14.531v-59.109c0-8.0156 6.5156-14.531 14.531-14.531s14.531 6.5156 14.531 14.531zm75.234 0v59.109c0 8.0156-6.5156 14.531-14.531 14.531s-14.531-6.5156-14.531-14.531v-59.109c0-8.0156 6.5156-14.531 14.531-14.531s14.531 6.5156 14.531 14.531zm91.406-14.531c-24.328 0-44.062 19.781-44.062 44.109s19.781 44.062 44.062 44.062c24.328 0 44.062-19.781 44.062-44.062 0-24.328-19.781-44.109-44.062-44.109zm0 59.109c-8.2969 0-15.047-6.75-15.047-15.047s6.75-15.047 15.047-15.047 15.047 6.75 15.047 15.047-6.75 15.047-15.047 15.047z"/>
</svg>
