<?xml version="1.0" encoding="UTF-8"?>
<!DOCTYPE svg PUBLIC "-//W3C//DTD SVG 1.1//EN" "http://www.w3.org/Graphics/SVG/1.1/DTD/svg11.dtd">
<svg version="1.1" xmlns="http://www.w3.org/2000/svg" xmlns:xlink="http://www.w3.org/1999/xlink" x="0" y="0" width="300" height="300" viewBox="0, 0, 300, 300">
  <g id="Layer_2" display="none">
    <path d="M150.5,0.5 L151.5,300.5" fill-opacity="0" stroke="#050404" stroke-width="1"/>
    <path d="M74.5,0.5 L75.5,300.5" fill-opacity="0" stroke="#050404" stroke-width="1"/>
    <path d="M225.5,0.5 L226.5,300.5" fill-opacity="0" stroke="#050404" stroke-width="1"/>
    <path d="M0.5,151 L300.5,150.5" fill-opacity="0" stroke="#050404" stroke-width="1"/>
    <path d="M0.5,76 L300.5,75.5" fill-opacity="0" stroke="#050404" stroke-width="1"/>
    <path d="M0.5,226 L300.5,225.5" fill-opacity="0" stroke="#050404" stroke-width="1"/>
  </g>
  <g id="Layer_4">
    <path d="M72,62.034 L148,10.5" fill-opacity="0" stroke="#C8C8C8" stroke-width="3"/>
    <path d="M148,4.5 L223.5,62.034" fill-opacity="0" stroke="#C8C8C8" stroke-width="3"/>
    <path d="M34.25,122.809 L72,62.034" fill-opacity="0" stroke="#C8C8C8" stroke-width="3"/>
    <path d="M72,62.034 L111.75,122.809" fill-opacity="0" stroke="#C8C8C8" stroke-width="3"/>
    <path d="M14.813,183.585 L34.25,122.809" fill-opacity="0" stroke="#C8C8C8" stroke-width="3"/>
    <path d="M35.062,122.809 L54.813,183.585" fill-opacity="0" stroke="#C8C8C8" stroke-width="3"/>
    <path d="M5.726,241.126 L14.813,183.686" fill-opacity="0" stroke="#C8C8C8" stroke-width="3"/>
    <path d="M14.813,183.483 L27.461,242.763" fill-opacity="0" stroke="#C8C8C8" stroke-width="3"/>
    <path d="M-1.5,300.5 L5.726,242.561" fill-opacity="0" stroke="#C8C8C8" stroke-width="3"/>
    <path d="M5.726,241.126 L14.812,300.5" fill-opacity="0" stroke="#C8C8C8" stroke-width="3"/>
    <path d="M21.938,300.5 L27.164,242.561" fill-opacity="0" stroke="#C8C8C8" stroke-width="3"/>
    <path d="M27.461,242.763 L35.062,300.5" fill-opacity="0" stroke="#C8C8C8" stroke-width="3"/>
    <path d="M45.664,241.126 L54.75,183.686" fill-opacity="0" stroke="#C8C8C8" stroke-width="3"/>
    <path d="M54.75,183.483 L67.398,242.763" fill-opacity="0" stroke="#C8C8C8" stroke-width="3"/>
    <path d="M38.438,300.5 L45.664,242.561" fill-opacity="0" stroke="#C8C8C8" stroke-width="3"/>
    <path d="M45.664,241.126 L54.75,300.5" fill-opacity="0" stroke="#C8C8C8" stroke-width="3"/>
    <path d="M61.875,300.5 L67.101,242.561" fill-opacity="0" stroke="#C8C8C8" stroke-width="3"/>
    <path d="M67.398,242.763 L75,300.5" fill-opacity="0" stroke="#C8C8C8" stroke-width="3"/>
    <path d="M91.312,183.585 L110.75,122.809" fill-opacity="0" stroke="#C8C8C8" stroke-width="3"/>
    <path d="M111.562,122.809 L131.312,183.585" fill-opacity="0" stroke="#C8C8C8" stroke-width="3"/>
    <path d="M82.226,241.126 L91.312,183.686" fill-opacity="0" stroke="#C8C8C8" stroke-width="3"/>
    <path d="M91.312,183.483 L103.961,242.763" fill-opacity="0" stroke="#C8C8C8" stroke-width="3"/>
    <path d="M75,300.5 L82.226,242.561" fill-opacity="0" stroke="#C8C8C8" stroke-width="3"/>
    <path d="M82.226,241.126 L91.312,300.5" fill-opacity="0" stroke="#C8C8C8" stroke-width="3"/>
    <path d="M98.438,300.5 L103.664,242.561" fill-opacity="0" stroke="#C8C8C8" stroke-width="3"/>
    <path d="M103.961,242.763 L111.562,300.5" fill-opacity="0" stroke="#C8C8C8" stroke-width="3"/>
    <path d="M122.164,241.126 L131.25,183.686" fill-opacity="0" stroke="#C8C8C8" stroke-width="3"/>
    <path d="M131.25,183.483 L143.898,242.763" fill-opacity="0" stroke="#C8C8C8" stroke-width="3"/>
    <path d="M114.938,300.5 L122.164,242.561" fill-opacity="0" stroke="#C8C8C8" stroke-width="3"/>
    <path d="M122.164,241.126 L131.25,300.5" fill-opacity="0" stroke="#C8C8C8" stroke-width="3"/>
    <path d="M138.375,300.5 L143.601,242.561" fill-opacity="0" stroke="#C8C8C8" stroke-width="3"/>
    <path d="M143.898,242.763 L151.5,300.5" fill-opacity="0" stroke="#C8C8C8" stroke-width="3"/>
    <path d="M185.75,121.809 L223.5,61.034" fill-opacity="0" stroke="#C8C8C8" stroke-width="3"/>
    <path d="M223.5,61.034 L263.25,121.809" fill-opacity="0" stroke="#C8C8C8" stroke-width="3"/>
    <path d="M166.312,182.585 L185.75,121.809" fill-opacity="0" stroke="#C8C8C8" stroke-width="3"/>
    <path d="M186.562,121.809 L206.312,182.585" fill-opacity="0" stroke="#C8C8C8" stroke-width="3"/>
    <path d="M157.226,240.126 L166.312,182.686" fill-opacity="0" stroke="#C8C8C8" stroke-width="3"/>
    <path d="M166.312,182.483 L178.961,241.763" fill-opacity="0" stroke="#C8C8C8" stroke-width="3"/>
    <path d="M151.5,300.5 L157.226,241.561" fill-opacity="0" stroke="#C8C8C8" stroke-width="3"/>
    <path d="M157.226,240.126 L166.312,299.5" fill-opacity="0" stroke="#C8C8C8" stroke-width="3"/>
    <path d="M173.438,299.5 L178.664,241.561" fill-opacity="0" stroke="#C8C8C8" stroke-width="3"/>
    <path d="M178.961,241.763 L186.562,299.5" fill-opacity="0" stroke="#C8C8C8" stroke-width="3"/>
    <path d="M197.164,240.126 L206.25,182.686" fill-opacity="0" stroke="#C8C8C8" stroke-width="3"/>
    <path d="M206.25,182.483 L218.898,241.763" fill-opacity="0" stroke="#C8C8C8" stroke-width="3"/>
    <path d="M189.937,299.5 L197.164,241.561" fill-opacity="0" stroke="#C8C8C8" stroke-width="3"/>
    <path d="M197.164,240.126 L206.25,299.5" fill-opacity="0" stroke="#C8C8C8" stroke-width="3"/>
    <path d="M213.375,299.5 L218.601,241.561" fill-opacity="0" stroke="#C8C8C8" stroke-width="3"/>
    <path d="M218.898,241.763 L226,300.5" fill-opacity="0" stroke="#C8C8C8" stroke-width="3"/>
    <path d="M242.812,182.585 L262.25,121.809" fill-opacity="0" stroke="#C8C8C8" stroke-width="3"/>
    <path d="M263.062,121.809 L282.812,182.585" fill-opacity="0" stroke="#C8C8C8" stroke-width="3"/>
    <path d="M233.726,240.126 L242.812,182.686" fill-opacity="0" stroke="#C8C8C8" stroke-width="3"/>
    <path d="M242.812,182.483 L255.461,241.763" fill-opacity="0" stroke="#C8C8C8" stroke-width="3"/>
    <path d="M226.5,299.5 L233.726,241.561" fill-opacity="0" stroke="#C8C8C8" stroke-width="3"/>
    <path d="M233.726,240.126 L242.812,299.5" fill-opacity="0" stroke="#C8C8C8" stroke-width="3"/>
    <path d="M249.938,299.5 L255.164,241.561" fill-opacity="0" stroke="#C8C8C8" stroke-width="3"/>
    <path d="M255.461,241.763 L263.062,299.5" fill-opacity="0" stroke="#C8C8C8" stroke-width="3"/>
    <path d="M273.664,240.126 L282.75,182.686" fill-opacity="0" stroke="#C8C8C8" stroke-width="3"/>
    <path d="M282.75,182.483 L295.398,241.763" fill-opacity="0" stroke="#C8C8C8" stroke-width="3"/>
    <path d="M266.438,299.5 L273.664,241.561" fill-opacity="0" stroke="#C8C8C8" stroke-width="3"/>
    <path d="M273.664,241.126 L282.75,300.5" fill-opacity="0" stroke="#C8C8C8" stroke-width="3"/>
    <path d="M290.5,299.5 L295.398,241.561" fill-opacity="0" stroke="#C8C8C8" stroke-width="3"/>
    <path d="M295.398,241.763 L300.5,300.5" fill-opacity="0" stroke="#C8C8C8" stroke-width="3"/>
  </g>
  <g id="Layer_5">
    <path d="M188.75,124.029 L208.5,184.287" fill-opacity="0" stroke="#C123BA" stroke-width="9"/>
    <path d="M208.5,183.783 L219.094,240.126" fill-opacity="0" stroke="#C123BA" stroke-width="9"/>
    <path d="M150,10.5 L226,63.771" fill-opacity="0" stroke="#C123BA" stroke-width="9"/>
    <path d="M187.25,124.029 L225,63.771" fill-opacity="0" stroke="#C123BA" stroke-width="9"/>
    <path d="M225.406,74.748 C219.728,74.748 215.125,70.167 215.125,64.517 C215.125,58.866 219.728,54.286 225.406,54.286 C231.084,54.286 235.687,58.866 235.687,64.517 C235.687,70.167 231.084,74.748 225.406,74.748 z" fill="#C123BA"/>
    <path d="M187.75,133.06 C182.072,133.06 177.469,128.48 177.469,122.829 C177.469,117.179 182.072,112.598 187.75,112.598 C193.428,112.598 198.031,117.179 198.031,122.829 C198.031,128.48 193.428,133.06 187.75,133.06 z" fill="#C123BA"/>
    <path d="M208.312,197 C202.634,197 198.031,192.419 198.031,186.769 C198.031,181.119 202.634,176.538 208.312,176.538 C213.991,176.538 218.594,181.119 218.594,186.769 C218.594,192.419 213.991,197 208.312,197 z" fill="#C123BA"/>
    <path d="M218.281,250 C212.603,250 208,245.419 208,239.769 C208,234.119 212.603,229.538 218.281,229.538 C223.959,229.538 228.562,234.119 228.562,239.769 C228.562,245.419 223.959,250 218.281,250 z" fill="#C123BA"/>
    <path d="M219.094,240.126 L226,300.5" fill-opacity="0" stroke="#C123BA" stroke-width="9"/>
    <path d="M148.156,20.462 C142.478,20.462 137.875,15.881 137.875,10.231 C137.875,4.581 142.478,0 148.156,0 C153.834,0 158.437,4.581 158.437,10.231 C158.437,15.881 153.834,20.462 148.156,20.462 z" fill="#C123BA"/>
  </g>
</svg>
