<?xml version="1.0" encoding="UTF-8"?>
<!DOCTYPE svg PUBLIC "-//W3C//DTD SVG 1.1//EN" "http://www.w3.org/Graphics/SVG/1.1/DTD/svg11.dtd">
<svg version="1.1" xmlns="http://www.w3.org/2000/svg" xmlns:xlink="http://www.w3.org/1999/xlink" x="0" y="0" width="300" height="300" viewBox="0, 0, 300, 300">
  <defs>
    <clipPath id="Clip_1">
      <path d="M4.694,31.774 L214.035,31.774 L214.035,285.887 L4.694,285.887 z M159.174,56.427 L194.612,69.247 L167.391,234.953 L123.112,123.959 L107.549,184.055 L82.367,182.999 L27.203,97.002 L63.076,67.204 L90.687,129.612 L104.141,78.793 L122.851,63.914 L150.654,117.251 L159.174,56.427 z M149.829,38.774 L147.665,54.224 L144.232,78.731 L132.809,56.819 L126.429,44.579 L116.291,52.641 L97.582,67.519 L94.207,70.202 L93,74.761 L87.965,93.782 L73.435,60.94 L67.267,46.998 L56.321,56.089 L20.448,85.888 L10.694,93.99 L17.873,105.181 L73.037,191.178 L76.38,196.39 L81.948,196.623 L107.13,197.681 L116.108,198.058 L118.711,188.007 L125.435,162.041 L156.821,240.716 L172.049,278.887 L178.843,237.524 L206.066,71.819 L208.035,59.832 L198.06,56.223 L162.621,43.403 L149.829,38.774 z"/>
    </clipPath>
    <filter id="Shadow_2">
      <feGaussianBlur in="SourceAlpha" stdDeviation="2.5"/>
      <feOffset dx="0" dy="1" result="offsetblur"/>
      <feFlood flood-color="#000000"/>
      <feComposite in2="offsetblur" operator="in"/>
    </filter>
    <clipPath id="Clip_3">
      <path d="M159.558,52.626 L283.805,52.626 L283.805,246.374 L159.558,246.374 z M229.17,73.622 L232.841,73.975 L229.507,111.088 L266.143,103.93 L266.143,136.786 L232.841,136.786 L232.841,173.681 C232.841,177.981 233.066,181.452 233.518,184.093 C233.97,186.734 235.245,188.941 237.343,190.712 C239.44,192.486 242.619,193.372 246.879,193.372 C252.429,193.372 255.056,190.656 264.092,185.225 L264.092,217.026 C260.477,219.063 260.156,221.025 253.801,222.91 C247.442,224.796 241.36,225.739 235.551,225.739 C210.446,225.739 193.062,210.656 193.061,181.985 L197.893,136.786 L171.61,141.557 L171.907,120.98 L229.17,73.622 z M225.897,59.626 L222.433,62.491 L169.445,109.849 L166.04,120.254 L165.558,141.537 L167.301,156.138 L173.4,155.031 L184.403,153.032 L181.49,180.294 L181.399,181.136 L181.399,181.985 C181.399,216.847 202.655,239.374 235.551,239.374 C242.296,239.374 249.4,238.281 256.667,236.126 C262.409,234.423 265.209,232.401 267.797,230.305 C268.498,229.738 268.759,229.531 269.155,229.307 L275.754,225.589 L275.754,162.881 L258.758,173.1 C256.572,174.414 254.789,175.547 253.214,176.548 C248.535,179.521 248.011,179.738 246.879,179.738 C245.927,179.738 245.225,179.673 244.727,179.595 C244.607,178.288 244.503,176.376 244.503,173.681 L244.503,150.42 L277.805,150.42 L277.805,87.828 L264.221,90.482 L242.707,94.685 L244.439,75.398 L245.686,61.531 L233.798,60.387 L230.126,60.033 L225.897,59.626 z"/>
    </clipPath>
    <filter id="Shadow_4">
      <feGaussianBlur in="SourceAlpha" stdDeviation="2.5"/>
      <feOffset dx="0" dy="1" result="offsetblur"/>
      <feFlood flood-color="#000000"/>
      <feComposite in2="offsetblur" operator="in"/>
    </filter>
  </defs>
  <g id="background">
    <g>
      <g>
        <path d="M149.829,38.774 L162.621,43.403 L198.06,56.223 L208.035,59.832 L206.066,71.819 L178.843,237.524 L172.049,278.887 L156.821,240.716 L125.435,162.041 L118.711,188.007 L116.108,198.058 L107.13,197.681 L81.948,196.623 L76.38,196.39 L73.037,191.178 L17.873,105.181 L10.694,93.99 L20.448,85.888 L56.321,56.089 L67.267,46.998 L73.435,60.94 L87.965,93.782 L93,74.761 L94.207,70.202 L97.582,67.519 L116.291,52.641 L126.429,44.579 L132.809,56.819 L144.232,78.731 L147.665,54.224 L149.829,38.774 z M159.174,56.427 L150.654,117.251 L122.851,63.914 L104.141,78.793 L90.687,129.612 L63.076,67.204 L27.203,97.002 L82.367,182.999 L107.549,184.055 L123.112,123.959 L167.391,234.953 L194.612,69.247 L159.174,56.427 z" clip-path="url(#Clip_1)" filter="url(#Shadow_2)" fill="rgba(0,0,0,0.75)"/>
        <path d="M149.829,38.774 L147.665,54.224 L144.232,78.731 L132.81,56.819 L126.429,44.579 L116.291,52.641 L97.582,67.519 L94.207,70.202 L93,74.761 L87.965,93.782 L73.435,60.94 L67.267,46.998 L56.321,56.089 L20.448,85.888 L10.695,93.99 L17.873,105.181 L73.037,191.178 L76.38,196.39 L81.948,196.623 L107.13,197.681 L116.108,198.058 L118.711,188.007 L125.435,162.041 L156.821,240.716 L172.049,278.887 L178.843,237.524 L206.066,71.819 L208.035,59.832 L198.06,56.223 L162.621,43.403 z M159.174,56.427 L194.612,69.247 L167.391,234.953 L123.112,123.959 L107.549,184.055 L82.367,182.999 L27.203,97.002 L63.076,67.204 L90.687,129.612 L104.141,78.793 L122.851,63.914 L150.654,117.251 z" fill="#FEFEFE"/>
      </g>
      <path d="M194.612,69.44 L167.391,235.145 L123.112,124.152 L107.549,184.248 L82.367,183.191 L27.204,97.193 L63.076,67.396 L90.687,129.805 L104.141,78.984 L122.851,64.106 L150.654,117.444 L159.174,56.62 z" fill="#35ABFF"/>
      <g>
        <g>
          <path d="M225.897,59.626 L230.126,60.033 L233.798,60.387 L245.686,61.531 L244.439,75.398 L242.707,94.685 L264.221,90.482 L277.805,87.828 L277.805,150.42 L244.503,150.42 L244.503,173.681 C244.503,176.376 244.607,178.288 244.727,179.595 C245.225,179.673 245.927,179.738 246.879,179.738 C248.011,179.738 248.535,179.521 253.214,176.548 C254.789,175.547 256.572,174.414 258.758,173.1 L275.754,162.881 L275.754,225.589 L269.155,229.307 C268.759,229.531 268.498,229.738 267.797,230.305 C265.209,232.401 262.409,234.423 256.667,236.126 C249.4,238.281 242.296,239.374 235.551,239.374 C202.655,239.374 181.399,216.847 181.399,181.985 L181.399,181.136 L181.49,180.294 L184.403,153.032 L173.4,155.031 L167.301,156.138 L165.558,141.537 L166.04,120.254 L169.445,109.849 L222.433,62.491 L225.897,59.626 z M229.17,73.622 L171.907,120.98 L171.61,141.557 L197.893,136.786 L193.061,181.985 C193.062,210.656 210.446,225.739 235.551,225.739 C241.36,225.739 247.442,224.796 253.801,222.91 C260.156,221.025 260.477,219.063 264.092,217.026 L264.092,185.225 C255.056,190.656 252.429,193.372 246.879,193.372 C242.619,193.372 239.44,192.486 237.343,190.712 C235.245,188.941 233.97,186.734 233.518,184.093 C233.066,181.452 232.841,177.981 232.841,173.681 L232.841,136.786 L266.143,136.786 L266.143,103.93 L229.507,111.088 L232.841,73.975 L229.17,73.622 z" clip-path="url(#Clip_3)" filter="url(#Shadow_4)" fill="rgba(0,0,0,0.75)"/>
          <path d="M225.897,59.627 L222.433,62.491 L169.445,109.849 L166.04,120.254 L165.558,141.537 L167.302,156.138 L173.4,155.031 L184.403,153.032 L181.49,180.295 L181.399,181.136 L181.399,181.985 C181.399,216.847 202.655,239.374 235.551,239.374 C242.296,239.374 249.4,238.281 256.667,236.126 C262.409,234.423 265.209,232.401 267.797,230.306 C268.498,229.738 268.759,229.531 269.155,229.307 L275.754,225.589 L275.754,217.026 L275.754,185.225 L275.754,162.881 L258.758,173.1 C256.572,174.414 254.789,175.547 253.214,176.548 C248.535,179.521 248.011,179.738 246.879,179.738 C245.927,179.738 245.225,179.673 244.727,179.595 C244.607,178.288 244.503,176.376 244.503,173.681 L244.503,150.42 L266.143,150.42 L277.805,150.42 L277.805,136.786 L277.805,103.93 L277.805,87.829 L264.221,90.482 L242.707,94.685 L244.439,75.398 L245.686,61.531 L233.798,60.387 L230.126,60.033 z M229.17,73.622 L232.841,73.975 L229.507,111.088 L266.143,103.93 L266.143,136.786 L232.841,136.786 L232.841,173.681 C232.841,177.981 233.066,181.452 233.519,184.093 C233.97,186.734 235.245,188.941 237.343,190.712 C239.44,192.486 242.619,193.372 246.879,193.372 C252.429,193.372 255.056,190.656 264.092,185.225 L264.092,217.026 C260.477,219.063 260.156,221.025 253.801,222.91 C247.442,224.796 241.36,225.739 235.551,225.739 C210.446,225.739 193.062,210.656 193.062,181.985 L197.893,136.786 L171.61,141.558 L171.907,120.98 L229.17,73.622" fill="#FEFEFE"/>
        </g>
        <path d="M263.592,217.345 C259.976,219.382 259.656,221.345 253.301,223.229 C246.942,225.115 240.859,226.059 235.051,226.059 C209.944,226.059 192.562,210.975 192.562,182.304 L197.393,137.104 L171.11,141.876 L171.407,121.298 L228.668,73.941 L232.341,74.294 L229.007,111.407 L265.643,104.249 L265.643,137.104 L232.341,137.104 L232.341,173.999 C232.341,178.299 232.566,181.771 233.019,184.412 C233.469,187.053 234.745,189.26 236.841,191.032 C238.938,192.805 242.118,193.691 246.378,193.691 C251.928,193.691 254.556,190.975 263.592,185.543 z" fill="#F7FF18"/>
      </g>
    </g>
  </g>
</svg>
